<?xml version="1.0" standalone="no"?>
<!DOCTYPE svg PUBLIC "-//W3C//DTD SVG 20010904//EN"
 "http://www.w3.org/TR/2001/REC-SVG-20010904/DTD/svg10.dtd">
<svg version="1.0" xmlns="http://www.w3.org/2000/svg"
 width="700.000000pt" height="700.000000pt" viewBox="0 0 700.000000 700.000000"
 preserveAspectRatio="xMidYMid meet">
<metadata>
Created by potrace 1.11, written by Peter Selinger 2001-2013
</metadata>
<g transform="translate(0.000000,700.000000) scale(0.100000,-0.100000)"
fill="#000000" stroke="none">
<path d="M510 5088 c0 -1071 3 -1348 13 -1349 79 -3 636 -4 649 -1 17 4 18 56
20 878 l3 873 133 -262 c73 -144 198 -390 278 -547 80 -157 220 -431 311 -610
91 -179 167 -327 169 -329 4 -4 726 -9 739 -4 7 2 9 445 8 1306 -1 716 -2
1323 -2 1349 l-1 47 -315 -2 -315 -2 0 -145 c0 -80 0 -464 0 -855 0 -414 -3
-705 -9 -700 -5 6 -81 152 -169 325 -267 526 -495 975 -600 1180 l-100 195
-406 0 -406 1 0 -1348z"/>
<path d="M4154 6425 c-7 -18 1 -1814 8 -1845 3 -14 9 -43 12 -65 10 -70 16
-99 25 -125 5 -14 15 -45 22 -70 7 -25 16 -49 19 -55 4 -5 10 -21 13 -35 13
-55 110 -197 185 -271 182 -179 438 -269 772 -273 278 -2 486 32 650 107 277
127 459 394 506 742 3 28 8 59 11 70 3 11 6 426 7 922 2 807 0 903 -14 907
-25 7 -637 4 -647 -3 -4 -3 -8 -395 -8 -871 -1 -476 -4 -890 -7 -920 -17 -150
-62 -269 -126 -335 -138 -143 -482 -144 -625 -1 -40 40 -78 107 -96 171 -38
130 -39 170 -40 1069 -1 484 -4 882 -7 885 -3 4 -152 7 -330 8 -258 1 -326 -1
-330 -12z"/>
<path d="M5188 3335 c-2 -1 -38 -5 -80 -8 -42 -4 -87 -9 -100 -11 -186 -42
-339 -94 -399 -137 -15 -10 -30 -19 -34 -19 -21 0 -177 -125 -243 -195 -273
-290 -387 -687 -349 -1218 17 -230 98 -486 210 -663 195 -309 534 -504 937
-539 93 -8 472 -8 548 0 165 18 377 67 482 112 70 29 106 46 140 64 l35 18 3
275 c1 152 0 276 -4 276 -3 0 -24 -13 -47 -28 -91 -62 -270 -143 -387 -176
-146 -40 -373 -54 -505 -31 -151 26 -286 96 -390 201 -165 166 -239 380 -238
689 1 445 191 747 537 854 74 23 97 25 266 25 201 0 286 -13 435 -69 70 -27
267 -126 295 -149 41 -35 40 -39 40 252 l0 280 -52 25 c-105 50 -297 116 -383
133 -11 2 -31 6 -45 9 -14 2 -43 7 -65 10 -23 3 -52 8 -65 11 -24 5 -536 14
-542 9z"/>
<path d="M1461 3268 c-4 -13 -87 -237 -184 -498 -97 -261 -250 -677 -342 -925
-91 -247 -175 -472 -185 -500 -11 -27 -78 -207 -149 -400 l-129 -350 356 -3
c196 -1 359 1 364 6 4 4 23 52 42 107 19 55 54 152 77 215 22 63 43 125 46
138 3 12 8 22 12 23 60 6 1054 -1 1060 -7 4 -5 23 -54 41 -109 19 -55 55 -161
81 -235 l47 -135 351 -3 351 -2 -11 27 c-6 16 -87 234 -180 486 -93 252 -174
468 -179 480 -5 12 -27 72 -49 132 -37 103 -81 223 -236 640 -34 94 -88 240
-120 325 -31 85 -60 164 -65 175 -5 11 -33 88 -63 170 -31 83 -65 176 -77 208
l-21 57 -415 0 -414 0 -9 -22z m489 -798 c105 -309 233 -679 264 -769 19 -58
33 -107 31 -110 -3 -2 -160 -5 -351 -5 -302 -1 -344 1 -340 14 10 33 69 187
82 217 8 17 14 34 14 38 0 6 36 104 197 538 36 98 67 176 68 175 1 -2 17 -46
35 -98z"/>
</g>
</svg>
