<svg viewBox="0 0 202 202" xmlns="http://www.w3.org/2000/svg" fill-rule="evenodd" clip-rule="evenodd" stroke-linecap="round" stroke-linejoin="round" stroke-miterlimit="1.5"><path d="M202 10.1C202 4.525 197.474 0 191.9 0H10.1C4.526 0 0 4.525 0 10.1v181.8c0 5.575 4.526 10.1 10.1 10.1h181.8c5.574 0 10.1-4.525 10.1-10.1V10.1z" fill="#ffcc24"/><path d="M197 13.7c0-5.354-4.324-9.7-9.65-9.7H13.65C8.324 4 4 8.346 4 13.7v174.6c0 5.354 4.324 9.7 9.65 9.7h173.7c5.326 0 9.65-4.346 9.65-9.7V13.7z" fill="none" stroke="#fff" stroke-width="1.92" transform="matrix(1.04663 0 0 1.04124 -4.187 -4.165)"/><path d="M197.999 13.7c0-5.354-4.346-9.7-9.7-9.7H13.7C8.347 4 4 8.346 4 13.7v174.6c0 5.354 4.346 9.7 9.7 9.7h174.6c5.353 0 9.699-4.346 9.699-9.7V13.7z" fill="#003cff"/><text x="-29.677" y="111" font-family="'GillSansMT-Bold','Gill Sans MT',sans-serif" font-weight="700" font-size="108" fill="#ffcc24" transform="matrix(.94995 0 0 .98908 33.494 -15.622)">N<tspan x="80.941" y="111">U</tspan></text><text x="-15.683" y="111" font-family="'GillSansMT-Bold','Gill Sans MT',sans-serif" font-weight="700" font-size="108" fill="#ffcc24" transform="translate(28.556 75.188) scale(.98908)">A<tspan x="83.755" y="111">C</tspan></text></svg>